<?xml version="1.0" encoding="UTF-8"?>
<!DOCTYPE svg PUBLIC "-//W3C//DTD SVG 1.1//EN" "http://www.w3.org/Graphics/SVG/1.1/DTD/svg11.dtd">
<!-- Creator: CorelDRAW -->
<svg xmlns="http://www.w3.org/2000/svg" xml:space="preserve" width="2000px" height="2000px" version="1.1" shape-rendering="geometricPrecision" text-rendering="geometricPrecision" image-rendering="optimizeQuality" fill-rule="evenodd" clip-rule="evenodd"
viewBox="0 0 2000 2000"
 xmlns:xlink="http://www.w3.org/1999/xlink"
 xmlns:xodm="http://www.corel.com/coreldraw/odm/2003">
 <g id="Layer_x0020_1">
  <metadata id="CorelCorpID_0Corel-Layer"/>
  <g id="_1714266938608">
   <g>
    <path fill="#004242" d="M1000 0c552.29,0 1000,447.71 1000,1000 0,300.73 -132.78,570.44 -342.88,753.75l-440.51 -505.29 -403.16 -462.45 -470.57 -539.77c175.72,-153.34 405.57,-246.24 657.12,-246.24zm657.1 1753.78c-2.12,1.85 -4.26,3.68 -6.39,5.51 2.13,-1.83 4.27,-3.66 6.39,-5.51zm-17.64 15.02c-2.19,1.83 -4.39,3.64 -6.6,5.45 2.21,-1.81 4.41,-3.62 6.6,-5.45zm-18.14 14.75c-2.42,1.92 -4.84,3.83 -7.28,5.73 2.44,-1.9 4.86,-3.81 7.28,-5.73zm-18.73 14.51c-2.84,2.14 -5.68,4.27 -8.54,6.39 2.86,-2.12 5.7,-4.25 8.54,-6.39zm-19.63 14.47c-2.75,1.98 -5.51,3.94 -8.28,5.89 2.77,-1.95 5.53,-3.91 8.28,-5.89zm-21.19 14.84c-2.16,1.47 -4.33,2.92 -6.49,4.37 2.16,-1.45 4.33,-2.9 6.49,-4.37zm-19.49 12.92c-2.17,1.41 -4.35,2.81 -6.54,4.2 2.19,-1.39 4.37,-2.79 6.54,-4.2zm-20.06 12.64c-2.08,1.27 -4.15,2.55 -6.24,3.81 2.08,-1.26 4.16,-2.54 6.24,-3.81zm-20.55 12.27c-2.47,1.43 -4.95,2.87 -7.44,4.28 2.49,-1.41 4.97,-2.85 7.44,-4.28zm-21.69 12.25c-2.32,1.27 -4.65,2.53 -6.98,3.79 2.33,-1.26 4.66,-2.52 6.98,-3.79zm-22.46 11.96c-1.88,0.96 -3.77,1.92 -5.66,2.88 1.89,-0.96 3.78,-1.92 5.66,-2.88zm-21.1 10.55c-1.94,0.94 -3.88,1.88 -5.83,2.81 1.95,-0.93 3.89,-1.87 5.83,-2.81zm-21.82 10.27c-1.76,0.8 -3.52,1.61 -5.29,2.4 1.77,-0.79 3.53,-1.6 5.29,-2.4zm-22.35 9.87c-1.59,0.68 -3.18,1.37 -4.78,2.04 1.6,-0.67 3.19,-1.36 4.78,-2.04zm-23.52 9.7c-1.56,0.62 -3.12,1.22 -4.69,1.84 1.57,-0.62 3.13,-1.22 4.69,-1.84zm-23.11 8.84c-1.5,0.56 -3.02,1.1 -4.53,1.65 1.51,-0.55 3.03,-1.09 4.53,-1.65zm-22.72 8.05c-1.5,0.52 -3.01,1.02 -4.52,1.53 1.51,-0.51 3.02,-1.01 4.52,-1.53zm-23.1 7.56c-1.41,0.45 -2.82,0.89 -4.24,1.33 1.42,-0.44 2.83,-0.88 4.24,-1.33zm-23.96 7.2c-1.04,0.3 -2.08,0.6 -3.12,0.9 1.04,-0.3 2.08,-0.6 3.12,-0.9zm-25.03 6.83c-0.8,0.2 -1.6,0.4 -2.4,0.61l2.4 -0.61zm-23.83 5.83c-1,0.23 -2,0.46 -3,0.69 1,-0.23 2,-0.46 3,-0.69zm-1226.67 -998.33c0.02,-0.78 0.03,-1.56 0.05,-2.33 -0.02,0.77 -0.03,1.55 -0.05,2.33zm0.91 -25.21c0.06,-1.14 0.11,-2.28 0.17,-3.43 -0.06,1.15 -0.11,2.29 -0.17,3.43zm3.81 -51.29c0.12,-1.23 0.25,-2.45 0.38,-3.68 -0.13,1.23 -0.26,2.45 -0.38,3.68zm2.9 -25.7c0.12,-0.97 0.25,-1.94 0.38,-2.91 -0.13,0.97 -0.26,1.94 -0.38,2.91zm7.37 -48.68c0.17,-0.93 0.32,-1.85 0.48,-2.77 -0.16,0.92 -0.31,1.84 -0.48,2.77zm4.56 -24.08c0.27,-1.29 0.52,-2.59 0.79,-3.88 -0.27,1.29 -0.52,2.59 -0.79,3.88zm5.26 -24.42c0.33,-1.45 0.66,-2.9 1,-4.35 -0.34,1.45 -0.67,2.9 -1,4.35zm5.91 -24.45c0.37,-1.46 0.75,-2.91 1.13,-4.37 -0.38,1.46 -0.76,2.91 -1.13,4.37zm6.56 -24.45c0.36,-1.26 0.73,-2.51 1.09,-3.76 -0.36,1.25 -0.73,2.5 -1.09,3.76zm7.07 -23.86c0.3,-0.97 0.61,-1.95 0.92,-2.93 -0.31,0.98 -0.62,1.96 -0.92,2.93zm7.08 -21.9c0.39,-1.17 0.77,-2.34 1.17,-3.51 -0.4,1.17 -0.78,2.34 -1.17,3.51zm7.9 -22.61c0.58,-1.61 1.16,-3.23 1.75,-4.83 -0.59,1.6 -1.17,3.22 -1.75,4.83zm8.67 -23.02c0.69,-1.77 1.38,-3.53 2.08,-5.29 -0.7,1.76 -1.39,3.52 -2.08,5.29zm9.29 -22.94c0.77,-1.84 1.56,-3.68 2.34,-5.52 -0.78,1.84 -1.57,3.68 -2.34,5.52zm9.95 -22.9c0.78,-1.74 1.58,-3.47 2.37,-5.2 -0.79,1.73 -1.59,3.46 -2.37,5.2zm9.92 -21.38c0.93,-1.92 1.86,-3.84 2.79,-5.76 -0.93,1.92 -1.86,3.84 -2.79,5.76zm10.17 -20.6c0.92,-1.82 1.84,-3.64 2.77,-5.45 -0.93,1.81 -1.85,3.63 -2.77,5.45zm11.11 -21.27c1.06,-1.96 2.11,-3.93 3.18,-5.88 -1.07,1.95 -2.12,3.92 -3.18,5.88zm11.83 -21.36c1.21,-2.13 2.43,-4.26 3.66,-6.38 -1.23,2.12 -2.45,4.25 -3.66,6.38zm12.5 -21.33c1.29,-2.14 2.59,-4.27 3.9,-6.4 -1.31,2.13 -2.61,4.26 -3.9,6.4zm13.05 -21.05c1.35,-2.12 2.72,-4.22 4.08,-6.33 -1.36,2.11 -2.73,4.21 -4.08,6.33zm12.23 -18.71c1.77,-2.64 3.55,-5.27 5.35,-7.89 -1.8,2.62 -3.58,5.25 -5.35,7.89zm13.1 -19.08c1.97,-2.8 3.95,-5.6 5.95,-8.38 -2,2.78 -3.98,5.58 -5.95,8.38zm14.09 -19.53c1.65,-2.24 3.3,-4.48 4.98,-6.71 -1.68,2.23 -3.33,4.47 -4.98,6.71zm14.82 -19.54c1.8,-2.32 3.62,-4.64 5.45,-6.95 -1.83,2.31 -3.65,4.63 -5.45,6.95zm15.43 -19.35c1.89,-2.3 3.79,-4.59 5.69,-6.88 -1.9,2.29 -3.8,4.58 -5.69,6.88zm15.95 -19.01c1.94,-2.25 3.89,-4.48 5.85,-6.71 -1.96,2.23 -3.91,4.46 -5.85,6.71zm14.04 -15.94c2.75,-3.06 5.53,-6.11 8.32,-9.14 -2.79,3.03 -5.57,6.08 -8.32,9.14zm15.98 -17.37c2.91,-3.1 5.84,-6.17 8.79,-9.23 -2.95,3.06 -5.88,6.13 -8.79,9.23zm16.96 -17.59c2.41,-2.44 4.82,-4.87 7.26,-7.29 -2.44,2.42 -4.85,4.85 -7.26,7.29zm17.54 -17.32c2.29,-2.21 4.58,-4.41 6.89,-6.6 -2.31,2.19 -4.6,4.39 -6.89,6.6zm18.03 -16.96c2.38,-2.19 4.78,-4.36 7.18,-6.53 -2.4,2.17 -4.8,4.34 -7.18,6.53z"/>
    <path fill="#003333" d="M1657.12 1753.75c-175.74,153.34 -405.57,246.25 -657.12,246.25 -552.29,0 -1000,-447.71 -1000,-1000 0,-300.73 132.78,-570.44 342.88,-753.76l470.57 539.77 403.16 462.45 440.51 505.29z"/>
   </g>
   <path fill="white" d="M1000 0.21c552.29,0 1000,447.72 1000,1000 0,552.29 -447.71,1000 -1000,1000 -552.29,0 -1000,-447.71 -1000,-1000 0,-552.28 447.71,-1000 1000,-1000zm0 60c519.15,0 940,420.85 940,940 0,519.15 -420.85,940 -940,940 -519.15,0 -940,-420.85 -940,-940 0,-519.15 420.85,-940 940,-940z"/>
  </g>
  <path fill="#FEFEFE" d="M602.15 867.33l-106.78 0 0 -99.83 311.56 0 0 99.83 -106.79 0 0 365.17 -97.99 0 0 -365.17zm64.3 -547.59c-190.92,0 -347.12,156.2 -347.12,347.11l0 506.37 -65.28 -65.28 -70.7 70.7 235.99 235.99c0,-245.13 0,-490.26 0,-735.4l0 -12.38c0,-67.85 27.83,-129.61 72.66,-174.44 44.84,-44.84 106.59,-72.67 174.45,-72.67l333.55 0 0 -100 -333.55 0zm914.21 265.63c0,249.4 0,498.8 0,748.21 0,67.85 -27.83,129.6 -72.66,174.44 -44.84,44.84 -106.59,72.67 -174.45,72.67l-333.55 0 0 100 333.55 0c190.92,0 347.12,-156.2 347.12,-347.11l0 -506.8 65.28 65.28 70.7 -70.7 -235.99 -235.99zm-518.83 454.92l95.16 36.4 -2.38 10.77c-9.26,41.77 -26.12,85.84 -58.8,114.99 -29.05,25.92 -64.04,37.41 -102.82,37.41 -50.52,0 -92.38,-19.59 -124.11,-58.98 -40.32,-50.05 -53.15,-114.07 -53.15,-176.99 0,-64.53 12.15,-132.19 53.43,-183.82 32.63,-40.81 76.41,-59.93 128.43,-59.93 42.95,0 80.28,14.58 110.48,45.24 24.58,24.96 38.08,59.96 45.89,93.53l2.75 11.79 -96.89 28.15 -2.66 -13.74c-3.42,-17.62 -10.22,-35.25 -23.65,-47.68 -11.32,-10.47 -24.38,-15.62 -39.8,-15.62 -23.53,0 -41.01,10.57 -54.72,29.41 -19.75,27.13 -22.82,74.66 -22.82,106.94 0,32.59 2.79,82.79 22.23,110.49 13.14,18.72 30,29.54 53.26,29.54 16.26,0 29.36,-6.5 40.39,-18.26 15.29,-16.3 22.89,-43.22 26.94,-64.62l2.84 -15.02zm349.72 -20.27l0 -252.52 93.08 0 0 465 -93.56 0 -124.93 -245.91 0 245.91 -93.07 0 0 -465 91.13 0 127.35 252.52z"/>
 </g>
</svg>
