<?xml version="1.0" encoding="UTF-8"?>
<!DOCTYPE svg PUBLIC "-//W3C//DTD SVG 1.1//EN" "http://www.w3.org/Graphics/SVG/1.1/DTD/svg11.dtd">
<!-- Creator: CorelDRAW -->
<svg xmlns="http://www.w3.org/2000/svg" xml:space="preserve" width="2000px" height="2000px" version="1.1" shape-rendering="geometricPrecision" text-rendering="geometricPrecision" image-rendering="optimizeQuality" fill-rule="evenodd" clip-rule="evenodd"
viewBox="0 0 2000 2000"
 xmlns:xlink="http://www.w3.org/1999/xlink"
 xmlns:xodm="http://www.corel.com/coreldraw/odm/2003">
 <g id="Layer_x0020_1">
  <metadata id="CorelCorpID_0Corel-Layer"/>
  <rect fill="#FEFEFE" width="2000" height="2000" rx="213.78" ry="213.78"/>
  <rect fill="#004242" x="80.16" y="80.16" width="1839.68" height="1839.68" rx="97.83" ry="133.62"/>
  <path fill="#003333" d="M828.4 803.17l-629.58 -722.17c-66.52,7.5 -118.66,64.34 -118.66,132.78l0 1572.44c0,73.49 60.13,133.62 133.62,133.62l1572.44 0c5.06,0 10.05,-0.29 14.96,-0.84l-601.93 -690.45 -370.85 -425.38z"/>
  <path fill="white" d="M666.45 319.74c-190.92,0 -347.12,156.2 -347.12,347.11l0 506.37 -65.28 -65.28 -70.7 70.7 185.99 185.99 185.98 -185.99 -70.7 -70.7 -65.28 65.28 0 -506.37c0,-67.85 27.83,-129.61 72.66,-174.44 44.84,-44.84 106.59,-72.67 174.45,-72.67l333.55 0 0 -100 -333.55 0zm667.1 1360.95c190.92,0 347.12,-156.2 347.12,-347.11l0 -506.8 65.28 65.28 70.7 -70.7 -185.99 -185.99 -185.98 185.99 70.7 70.7 65.28 -65.28 0 506.8c0,67.85 -27.83,129.6 -72.66,174.44 -44.84,44.84 -106.59,72.67 -174.45,72.67l-333.55 0 0 100 333.55 0z"/>
  <g id="_2068196301792">
   <line fill="none" stroke="white" stroke-width="100" stroke-miterlimit="22.9256" x1="737.83" y1="837.18" x2="1262.17" y2= "1438.62" />
   <line fill="none" stroke="white" stroke-width="100" stroke-miterlimit="22.9256" x1="737.83" y1="561.38" x2="1262.17" y2= "1162.82" />
  </g>
 </g>
</svg>
