<?xml version="1.0" encoding="UTF-8"?>
<!DOCTYPE svg PUBLIC "-//W3C//DTD SVG 1.1//EN" "http://www.w3.org/Graphics/SVG/1.1/DTD/svg11.dtd">
<!-- Creator: CorelDRAW -->
<svg xmlns="http://www.w3.org/2000/svg" xml:space="preserve" width="2000px" height="2000px" version="1.1" shape-rendering="geometricPrecision" text-rendering="geometricPrecision" image-rendering="optimizeQuality" fill-rule="evenodd" clip-rule="evenodd"
viewBox="0 0 2000 2000"
 xmlns:xlink="http://www.w3.org/1999/xlink"
 xmlns:xodm="http://www.corel.com/coreldraw/odm/2003">
 <g id="Layer_x0020_1">
  <metadata id="CorelCorpID_0Corel-Layer"/>
  <rect fill="#FEFEFE" width="2000" height="2000" rx="213.78" ry="213.78"/>
  <rect fill="#004242" x="80.16" y="80.16" width="1839.68" height="1839.68" rx="97.83" ry="133.62"/>
  <path fill="#003333" d="M828.4 803.17l-629.58 -722.17c-66.52,7.5 -118.66,64.34 -118.66,132.78l0 1572.44c0,73.49 60.13,133.62 133.62,133.62l1572.44 0c5.06,0 10.05,-0.29 14.96,-0.84l-601.93 -690.45 -370.85 -425.38z"/>
  <path fill="white" d="M666.45 319.74c-190.92,0 -347.12,156.2 -347.12,347.11l0 506.37 -65.28 -65.28 -70.7 70.7 235.99 235.99c0,-245.13 0,-490.26 0,-735.4l0 -12.38c0,-67.85 27.83,-129.61 72.66,-174.44 44.84,-44.84 106.59,-72.67 174.45,-72.67l333.55 0 0 -100 -333.55 0zm914.21 265.63c0,249.4 0,498.8 0,748.21 0,67.85 -27.83,129.6 -72.66,174.44 -44.84,44.84 -106.59,72.67 -174.45,72.67l-333.55 0 0 100 333.55 0c190.92,0 347.12,-156.2 347.12,-347.11l0 -506.8 65.28 65.28 70.7 -70.7 -235.99 -235.99z"/>
  <path fill="#FEFEFE" d="M602.15 867.33l-106.78 0 0 -99.83 311.56 0 0 99.83 -106.79 0 0 365.17 -97.99 0 0 -365.17zm459.68 172.96l95.16 36.4 -2.38 10.77c-9.26,41.77 -26.12,85.84 -58.8,114.99 -29.05,25.92 -64.04,37.41 -102.82,37.41 -50.52,0 -92.38,-19.59 -124.11,-58.98 -40.32,-50.05 -53.15,-114.07 -53.15,-176.99 0,-64.53 12.15,-132.19 53.43,-183.82 32.63,-40.81 76.41,-59.93 128.43,-59.93 42.95,0 80.28,14.58 110.48,45.24 24.58,24.96 38.08,59.96 45.89,93.53l2.75 11.79 -96.89 28.15 -2.66 -13.74c-3.42,-17.62 -10.22,-35.25 -23.65,-47.68 -11.32,-10.47 -24.38,-15.62 -39.8,-15.62 -23.53,0 -41.01,10.57 -54.72,29.41 -19.75,27.13 -22.82,74.66 -22.82,106.94 0,32.59 2.79,82.79 22.23,110.49 13.14,18.72 30,29.54 53.26,29.54 16.26,0 29.36,-6.5 40.39,-18.26 15.29,-16.3 22.89,-43.22 26.94,-64.62l2.84 -15.02zm349.72 -20.27l0 -252.52 93.08 0 0 465 -93.56 0 -124.93 -245.91 0 245.91 -93.07 0 0 -465 91.13 0 127.35 252.52z"/>
 </g>
</svg>
